<svg width="886" height="560" viewBox="0 0 886 560" fill="none" xmlns="http://www.w3.org/2000/svg">
<g clip-path="url(#clip0_629_1582)">
<path d="M398.394 0.322754H0.968018V209H398.394V0.322754Z" fill="#F2F2F2"/>
<path d="M398.151 0H0.725342V24.1915H398.151V0Z" fill="#E6E6E6"/>
<path d="M390.956 34H9.95557V198H390.956V34Z" fill="white"/>
<path d="M38.386 16.0357C40.5961 16.0357 42.3878 14.2441 42.3878 12.034C42.3878 9.82387 40.5961 8.03223 38.386 8.03223C36.1759 8.03223 34.3843 9.82387 34.3843 12.034C34.3843 14.2441 36.1759 16.0357 38.386 16.0357Z" fill="white"/>
<path d="M53.576 16.0357C55.7861 16.0357 57.5777 14.2441 57.5777 12.034C57.5777 9.82387 55.7861 8.03223 53.576 8.03223C51.3659 8.03223 49.5742 9.82387 49.5742 12.034C49.5742 14.2441 51.3659 16.0357 53.576 16.0357Z" fill="white"/>
<path d="M23.1565 16.0357C25.3666 16.0357 27.1583 14.2441 27.1583 12.034C27.1583 9.82387 25.3666 8.03223 23.1565 8.03223C20.9464 8.03223 19.1548 9.82387 19.1548 12.034C19.1548 14.2441 20.9464 16.0357 23.1565 16.0357Z" fill="white"/>
<path d="M314.479 82.0596H95.3911V91.824H314.479V82.0596Z" fill="#F2F2F2"/>
<path d="M173.506 106.47H95.3911V116.235H173.506V106.47Z" fill="#F2F2F2"/>
<path d="M251.011 130.881H95.3911V140.645H251.011V130.881Z" fill="#F2F2F2"/>
<path d="M464.956 273.622H90.9539V470H464.956V273.622Z" fill="#F2F2F2"/>
<path d="M464.727 273.318H90.7253V296.084H464.727V273.318Z" fill="#E6E6E6"/>
<path d="M457.956 304H98.8398V460H457.956V304Z" fill="white"/>
<path d="M126.166 288.409C128.246 288.409 129.932 286.723 129.932 284.643C129.932 282.563 128.246 280.877 126.166 280.877C124.086 280.877 122.4 282.563 122.4 284.643C122.4 286.723 124.086 288.409 126.166 288.409Z" fill="white"/>
<path d="M140.461 288.409C142.541 288.409 144.227 286.723 144.227 284.643C144.227 282.563 142.541 280.877 140.461 280.877C138.381 280.877 136.695 282.563 136.695 284.643C136.695 286.723 138.381 288.409 140.461 288.409Z" fill="white"/>
<path d="M111.834 288.409C113.914 288.409 115.6 286.723 115.6 284.643C115.6 282.563 113.914 280.877 111.834 280.877C109.755 280.877 108.069 282.563 108.069 284.643C108.069 286.723 109.755 288.409 111.834 288.409Z" fill="white"/>
<path d="M714.627 86.0615H270.996V319H714.627V86.0615Z" fill="#E6E6E6"/>
<path d="M714.356 85.7017H270.725V112.706H714.356V85.7017Z" fill="#2795DB"/>
<path d="M703.956 121H280.956V306H703.956V121Z" fill="white"/>
<path d="M312.764 103.601C315.231 103.601 317.231 101.602 317.231 99.1345C317.231 96.6674 315.231 94.6675 312.764 94.6675C310.297 94.6675 308.297 96.6674 308.297 99.1345C308.297 101.602 310.297 103.601 312.764 103.601Z" fill="white"/>
<path d="M329.72 103.601C332.187 103.601 334.187 101.602 334.187 99.1345C334.187 96.6674 332.187 94.6675 329.72 94.6675C327.253 94.6675 325.253 96.6674 325.253 99.1345C325.253 101.602 327.253 103.601 329.72 103.601Z" fill="white"/>
<path d="M295.764 103.601C298.231 103.601 300.231 101.602 300.231 99.1345C300.231 96.6674 298.231 94.6675 295.764 94.6675C293.297 94.6675 291.297 96.6674 291.297 99.1345C291.297 101.602 293.297 103.601 295.764 103.601Z" fill="white"/>
<path d="M654.842 168.636H330.511V183.091H654.842V168.636Z" fill="#E6E6E6"/>
<path d="M446.15 204.773H330.511V219.228H446.15V204.773Z" fill="#E6E6E6"/>
<path d="M560.886 240.91H330.511V255.365H560.886V240.91Z" fill="#E6E6E6"/>
<path d="M408.956 350.301H164.397V361.201H408.956V350.301Z" fill="#F2F2F2"/>
<path d="M251.593 377.55H164.397V388.449H251.593V377.55Z" fill="#F2F2F2"/>
<path d="M338.109 404.799H164.397V415.698H338.109V404.799Z" fill="#F2F2F2"/>
<path d="M503.067 89.2148L482.216 100.766L504.453 92.9239L503.067 89.2148Z" fill="white"/>
<path d="M512.465 100.581C515.521 99.589 516.377 93.794 514.377 87.6379C512.378 81.4818 508.28 77.2959 505.224 78.2884C502.168 79.2809 501.312 85.0759 503.312 91.232C505.311 97.3881 509.409 101.574 512.465 100.581Z" fill="#3F3D56"/>
<path d="M510.185 82.6668L524.015 77.6748L526.955 85.8168L513.57 94.8578L510.185 82.6668Z" fill="#3F3D56"/>
<path d="M520.572 86.6644C521.116 88.557 522.069 90.3072 523.362 91.7919C524.656 93.2765 526.26 94.4594 528.06 95.2573C529.86 96.0552 531.814 96.4487 533.783 96.41C535.752 96.3712 537.688 95.9013 539.456 95.0332L573.476 128.708L578.352 104.316L545.298 76.0772C543.643 73.2044 540.992 71.0386 537.847 69.99C534.701 68.9415 531.281 69.0832 528.233 70.3882C525.185 71.6932 522.722 74.0709 521.31 77.0707C519.898 80.0705 519.635 83.484 520.572 86.6644Z" fill="#A0616A"/>
<path d="M779.828 299.129C781.126 297.648 782.084 295.901 782.634 294.01C783.184 292.119 783.312 290.13 783.011 288.184C782.709 286.238 781.984 284.382 780.888 282.747C779.791 281.111 778.349 279.736 776.663 278.718L786.61 231.894L763.451 240.974L757.556 284.047C756.034 286.992 755.645 290.393 756.462 293.607C757.28 296.82 759.248 299.621 761.993 301.48C764.739 303.339 768.07 304.127 771.357 303.693C774.644 303.26 777.658 301.636 779.828 299.129Z" fill="#A0616A"/>
<path d="M667.756 543.156H651.333L643.52 479.811L667.758 479.812L667.756 543.156Z" fill="#A0616A"/>
<path d="M671.944 559.076L618.991 559.074V558.404C618.991 555.697 619.524 553.017 620.56 550.517C621.596 548.016 623.114 545.744 625.028 543.83C626.942 541.916 629.214 540.398 631.715 539.362C634.215 538.326 636.895 537.793 639.602 537.793H639.603L671.945 537.795L671.944 559.076Z" fill="#2F2E41"/>
<path d="M748.128 543.156H731.706L723.893 479.811L748.131 479.812L748.128 543.156Z" fill="#A0616A"/>
<path d="M752.317 559.076L699.364 559.074V558.404C699.364 555.697 699.897 553.017 700.933 550.517C701.968 548.016 703.487 545.744 705.4 543.83C707.314 541.916 709.587 540.398 712.087 539.362C714.588 538.326 717.268 537.793 719.975 537.793H719.976L752.318 537.795L752.317 559.076Z" fill="#2F2E41"/>
<path d="M669.467 510.08L646.219 509.15C644.634 509.082 643.138 508.392 642.056 507.231C640.974 506.07 640.392 504.529 640.435 502.943L646.985 288.108L647.413 287.954C688.157 273.215 721.862 274.329 750.459 291.356L750.778 291.547L754.702 500.787C754.717 501.588 754.572 502.384 754.276 503.129C753.98 503.873 753.539 504.551 752.978 505.123C752.416 505.695 751.747 506.149 751.008 506.459C750.269 506.769 749.476 506.929 748.675 506.929H729.072C727.676 506.926 726.323 506.44 725.245 505.553C724.167 504.666 723.429 503.433 723.157 502.064L696.453 366.222C696.361 365.752 696.104 365.331 695.729 365.034C695.354 364.737 694.885 364.583 694.407 364.601C693.929 364.618 693.473 364.806 693.121 365.13C692.769 365.454 692.544 365.893 692.487 366.368L675.692 504.783C675.507 506.243 674.798 507.585 673.696 508.561C672.595 509.536 671.176 510.077 669.705 510.084C669.626 510.084 669.546 510.083 669.467 510.08Z" fill="#2F2E41"/>
<path d="M707.864 95.6724C723.808 86.9567 729.667 66.9663 720.952 51.0225C712.236 35.0788 692.246 29.2193 676.302 37.9351C660.358 46.6508 654.499 66.6413 663.214 82.585C671.93 98.5287 691.921 104.388 707.864 95.6724Z" fill="#A0616A"/>
<path d="M545.908 99.5307C546.435 98.4225 547.287 97.5013 548.351 96.8898L558.273 91.1925C559.349 90.5782 560.587 90.309 561.821 90.4214C563.055 90.5339 564.224 91.0225 565.171 91.8211L598.137 119.75L673.91 140.993C676.22 142.076 678.295 143.604 680.015 145.489C681.735 147.374 683.067 149.579 683.934 151.979C684.801 154.379 685.187 156.926 685.069 159.475C684.951 162.024 684.331 164.525 683.246 166.835C682.161 169.144 680.632 171.217 678.745 172.936C676.858 174.654 674.651 175.983 672.251 176.848C669.85 177.712 667.302 178.095 664.753 177.975C662.204 177.854 659.704 177.232 657.395 176.145L608.994 165.249C594.303 161.944 581.313 153.415 572.44 141.249L546.483 105.67C545.984 104.986 545.635 104.204 545.458 103.376C545.281 102.548 545.281 101.692 545.456 100.864C545.554 100.403 545.705 99.9556 545.908 99.5307Z" fill="#3F3D56"/>
<path d="M778.423 268.814C777.268 269.23 776.015 269.284 774.829 268.969L763.772 266.029C762.575 265.708 761.506 265.027 760.709 264.078C759.912 263.13 759.426 261.959 759.316 260.726L755.57 217.682L716.721 149.246C715.842 146.85 715.445 144.305 715.55 141.755C715.656 139.206 716.264 136.702 717.338 134.387C718.412 132.073 719.931 129.992 721.81 128.265C723.688 126.538 725.889 125.199 728.285 124.322C730.682 123.446 733.228 123.051 735.777 123.16C738.327 123.268 740.83 123.878 743.143 124.954C745.457 126.03 747.536 127.552 749.261 129.432C750.986 131.313 752.324 133.514 753.197 135.912L779.896 177.729C788.001 190.419 791.221 205.622 788.956 220.508L782.338 264.049C782.21 264.886 781.908 265.687 781.45 266.4C780.993 267.112 780.39 267.721 779.682 268.185C779.289 268.444 778.866 268.655 778.423 268.814Z" fill="#3F3D56"/>
<path d="M656.097 125.231C661.748 119.034 668.718 114.185 676.494 111.041C684.269 107.897 692.651 106.54 701.021 107.068C701.571 107.102 702.119 107.14 702.665 107.183C710.598 107.81 718.307 110.124 725.274 113.969C732.241 117.815 738.307 123.103 743.066 129.482C747.904 135.949 751.306 143.375 753.045 151.262C754.783 159.15 754.817 167.318 753.146 175.22C746.766 205.418 748.381 236.759 757.83 266.143L766.656 293.548C766.939 294.426 767.016 295.358 766.882 296.271C766.749 297.184 766.407 298.053 765.884 298.813C765.361 299.573 764.67 300.203 763.865 300.654C763.06 301.105 762.163 301.365 761.241 301.414L716.119 303.84L704.572 283.895V304.461L649.729 307.409C649.62 307.416 649.512 307.419 649.404 307.419C648.571 307.418 647.748 307.246 646.986 306.912C646.224 306.578 645.539 306.089 644.975 305.478C644.411 304.866 643.979 304.144 643.708 303.357C643.436 302.571 643.33 301.736 643.397 300.907L649.596 224.041L641.821 171.836C640.562 163.494 641.192 154.977 643.662 146.911C646.133 138.845 650.382 131.437 656.097 125.231Z" fill="#3F3D56"/>
<path d="M714.949 98.2123C711.903 99.965 699.862 101.127 699.005 97.7191L698.986 97.6442C698.389 95.1471 698.885 92.5396 699.056 89.9778C699.228 87.4161 698.977 84.6019 697.232 82.7184C693.98 79.2072 688.194 81.0685 683.491 80.1807C680.736 79.5658 678.3 77.9682 676.638 75.6868C674.976 73.4054 674.202 70.5966 674.462 67.7861C674.529 67.2536 674.634 66.7205 674.752 66.1878C675.046 64.838 675.023 63.4384 674.685 62.0988C674.348 60.7593 673.704 59.5163 672.805 58.4674C671.906 57.4185 670.776 56.5922 669.504 56.0535C668.232 55.5148 666.852 55.2783 665.473 55.3625C660.72 55.6343 655.59 57.0743 651.658 53.554C648.617 50.8317 647.875 43.7454 649.211 39.8889C651.456 33.4077 665.84 30.0147 672.12 28.1495C679.887 25.9054 688.056 25.4202 696.034 26.7293C704.012 28.0384 711.598 31.1088 718.241 35.7173C722.207 38.5133 725.912 42.0263 727.602 46.5753C729.293 51.1243 728.477 56.8634 724.665 59.8663C727.62 62.9951 729.701 66.8455 730.699 71.0318C731.698 75.2181 731.578 79.5933 730.353 83.7189C728.47 89.7863 719.483 95.6033 714.949 98.2123Z" fill="#2F2E41"/>
<path d="M884.274 560H503.274C503.009 560 502.755 559.895 502.567 559.707C502.38 559.52 502.274 559.265 502.274 559C502.274 558.735 502.38 558.48 502.567 558.293C502.755 558.105 503.009 558 503.274 558H884.274C884.54 558 884.794 558.105 884.982 558.293C885.169 558.48 885.274 558.735 885.274 559C885.274 559.265 885.169 559.52 884.982 559.707C884.794 559.895 884.54 560 884.274 560Z" fill="#3F3D56"/>
</g>
<defs>
<clipPath id="clip0_629_1582">
<rect width="884.549" height="560" fill="white" transform="translate(0.725342)"/>
</clipPath>
</defs>
</svg>
