<svg width="860" height="570" viewBox="0 0 860 570" fill="none" xmlns="http://www.w3.org/2000/svg">
<path d="M435.659 160.205C428.005 147.546 418.935 134.03 404.731 129.896C388.282 125.11 371.385 134.619 357.053 144.002C314.19 172.066 272.912 202.479 233.408 235.102L233.451 235.594C264.207 233.473 294.962 231.352 325.717 229.231C347.937 227.698 370.921 225.955 390.558 215.443C398.009 211.454 405.273 206.126 413.717 205.755C424.207 205.293 433.355 212.62 440.543 220.275C483.065 265.555 495.37 334.798 543.075 374.58C512.993 300.394 477.075 228.711 435.659 160.205Z" fill="#F2F2F2"/>
<path d="M697.033 544.259C692.331 538.321 690.409 536.931 685.771 530.938C648.004 482.092 612.506 431.597 579.277 379.451C556.707 344.036 535.256 307.94 514.924 271.165C505.245 253.681 495.83 236.061 486.682 218.303C479.582 204.533 472.641 190.682 465.859 176.748C463.919 172.768 462.035 168.77 460.159 164.763C455.74 155.34 451.403 145.871 446.747 136.576C441.441 125.981 434.982 114.874 425.238 107.757C420.803 104.384 415.501 102.344 409.95 101.874C402.018 101.361 394.699 104.637 387.819 108.214C337.481 134.462 290.356 167.371 247.731 204.817C204.997 242.348 166.8 284.748 133.919 331.154C132.913 332.59 130.534 331.218 131.549 329.773C135.547 324.119 139.625 318.526 143.781 312.994C195.466 244.254 258.839 185.142 331.004 138.36C343.145 130.492 355.514 122.992 368.112 115.862C374.461 112.267 380.838 108.717 387.325 105.387C393.683 102.121 400.435 99.184 407.699 99.0742C432.42 98.69 445.219 126.686 454.011 145.523C456.774 151.452 459.57 157.362 462.4 163.254C473.095 185.623 484.202 207.787 495.721 229.748C502.829 243.306 510.094 256.786 517.514 270.186C540.605 311.914 565.148 352.797 591.144 392.836C625.58 445.872 659.742 492.723 698.972 542.319C700.052 543.692 698.122 545.65 697.033 544.259Z" fill="#E4E4E4"/>
<path d="M245.288 190.993C243.852 189.392 242.425 187.791 240.979 186.19C229.58 173.583 217.348 161.122 201.694 153.894C194.23 150.339 186.082 148.451 177.815 148.359C169.27 148.387 160.917 150.628 153.022 153.766C149.289 155.258 145.639 156.95 142.043 158.752C137.935 160.82 133.901 163.025 129.885 165.248C122.346 169.42 114.905 173.775 107.561 178.313C92.9503 187.343 78.797 197.062 65.1012 207.47C58.0014 212.868 51.0482 218.443 44.2414 224.194C37.9105 229.537 31.7076 235.024 25.6327 240.653C24.3337 241.852 22.394 239.912 23.6931 238.714C25.2941 237.222 26.9135 235.74 28.5329 234.276C33.1073 230.141 37.755 226.085 42.476 222.108C51.0848 214.844 59.9165 207.861 68.9711 201.157C83.0514 190.728 97.6164 181.005 112.666 171.991C120.187 167.49 127.811 163.177 135.538 159.054C137.871 157.81 140.232 156.593 142.62 155.44C148.038 152.708 153.667 150.416 159.454 148.588C167.65 145.936 176.322 145.084 184.878 146.09C193.139 147.292 201.099 150.045 208.336 154.205C223.706 162.796 235.627 176.08 247.228 189.044C248.399 190.362 246.469 192.31 245.288 190.993Z" fill="#E4E4E4"/>
<path d="M560.214 321.637L597.045 308.166L615.331 301.477C621.287 299.299 627.228 296.819 633.385 295.26C638.735 293.731 644.416 293.804 649.725 295.468C654.46 297.22 658.795 299.907 662.471 303.369C666.226 306.827 669.72 310.558 672.924 314.533C676.906 319.317 680.828 324.152 684.768 328.971C701.03 348.858 717.185 368.831 733.234 388.891C749.282 408.951 765.223 429.096 781.057 449.325C796.93 469.605 812.693 489.969 828.348 510.418C830.265 512.923 832.181 515.43 834.096 517.937C835.153 519.322 837.538 517.957 836.466 516.552C820.696 495.897 804.816 475.327 788.827 454.842C772.798 434.307 756.658 413.86 740.408 393.499C724.158 373.139 707.798 352.868 691.328 332.684C687.225 327.656 683.115 322.633 678.998 317.616C675.526 313.384 672.092 309.106 668.284 305.167C661.292 297.936 652.558 291.546 642.102 291.373C635.955 291.271 630.005 293.222 624.294 295.288C618.137 297.515 611.994 299.785 605.845 302.034L568.757 315.599L559.485 318.99C557.839 319.592 558.55 322.245 560.214 321.637Z" fill="#E4E4E4"/>
<path d="M196.847 169.758C178.131 160.139 154.162 162.023 136.963 174.041C169.769 179.7 202.216 187.273 234.137 196.721C220.882 188.952 210.512 176.781 196.847 169.758Z" fill="#F2F2F2"/>
<path d="M136.778 174.008L133.175 176.937C134.394 175.911 135.661 174.95 136.963 174.041C136.901 174.03 136.84 174.018 136.778 174.008Z" fill="#F2F2F2"/>
<path d="M661.084 321.772C657.458 317.359 653.539 312.738 648.116 310.945L643.053 311.145C681.593 379.247 733.645 438.754 796.012 486.013C751.036 431.266 706.06 376.519 661.084 321.772Z" fill="#F2F2F2"/>
<path d="M346.252 285.366C348.595 293.878 353.874 301.288 361.154 306.283C363.968 308.199 367.298 310.037 368.261 313.303C368.767 315.385 368.455 317.582 367.389 319.441C366.325 321.276 365.03 322.966 363.535 324.472L363.399 324.983C356.415 320.844 349.77 315.608 345.912 308.465C342.054 301.322 341.515 291.959 346.252 285.366Z" fill="#F2F2F2"/>
<path d="M578.784 487.958C581.127 496.47 586.406 503.879 593.685 508.875C596.5 510.791 599.83 512.629 600.793 515.895C601.299 517.977 600.987 520.174 599.921 522.033C598.856 523.867 597.561 525.558 596.067 527.064L595.931 527.575C588.946 523.436 582.302 518.2 578.444 511.057C574.586 503.914 574.047 494.551 578.784 487.958Z" fill="#F2F2F2"/>
<path d="M114.719 473.986C117.062 482.499 122.34 489.908 129.62 494.903C132.435 496.819 135.765 498.657 136.727 501.923C137.234 504.005 136.922 506.202 135.856 508.061C134.791 509.896 133.496 511.587 132.002 513.092L131.866 513.603C124.881 509.464 118.237 504.229 114.379 497.085C110.521 489.942 109.982 480.58 114.719 473.986Z" fill="#F2F2F2"/>
<path d="M648.743 101.795C676.853 101.795 699.64 79.0074 699.64 50.8975C699.64 22.7876 676.853 0 648.743 0C620.633 0 597.845 22.7876 597.845 50.8975C597.845 79.0074 620.633 101.795 648.743 101.795Z" fill="#2795DB"/>
<path d="M740.593 11.8462C715.926 8.51199 687.764 21.8448 681.371 45.9012C679.76 41.6239 676.831 37.9696 673.007 35.4662C669.182 32.9628 664.662 31.7398 660.097 31.9741C655.532 32.2083 651.16 33.8876 647.613 36.7693C644.065 39.651 641.525 43.5859 640.36 48.0056L643.184 50.0282C696.045 61.4595 750.765 61.2121 803.52 49.3033C786.362 31.2707 765.26 15.1804 740.593 11.8462Z" fill="#F0F0F0"/>
<path d="M634.806 79.7095C610.139 76.3753 581.977 89.708 575.584 113.764C573.973 109.487 571.044 105.833 567.22 103.329C563.396 100.826 558.875 99.6031 554.31 99.8374C549.745 100.072 545.373 101.751 541.826 104.633C538.278 107.514 535.738 111.449 534.573 115.869L537.397 117.892C590.258 129.323 644.978 129.075 697.733 117.167C680.575 99.134 659.473 83.0437 634.806 79.7095Z" fill="#F0F0F0"/>
<path d="M850.099 92.5422C849.997 92.5424 849.896 92.5266 849.798 92.4954C585.923 9.04529 353.354 19.9579 204.718 43.8073C184.49 47.0518 164.208 50.7991 144.435 54.946C139.387 56.0034 134.15 57.1369 128.87 58.3171C122.564 59.7215 116.342 61.1678 110.375 62.6142C107.798 63.2243 105.272 63.8392 102.796 64.4591C99.0448 65.3849 95.239 66.3498 91.1593 67.4101C86.6006 68.5855 81.9688 69.8184 77.3897 71.0746C77.3729 71.0805 77.3558 71.0854 77.3385 71.0892L77.339 71.0902C72.1668 72.5024 67.0219 73.9556 62.0465 75.4067C59.3537 76.1845 56.7535 76.9515 54.2629 77.7087C53.9847 77.7857 53.7381 77.8598 53.4881 77.9358L52.953 78.0986C52.6431 78.1931 52.3371 78.2857 52.0311 78.3734L52.0116 78.3793L52.0121 78.3803L51.2022 78.6318C50.2363 78.9242 49.2939 79.2097 48.3671 79.4943C23.8715 87.0455 10.4054 92.4175 10.2724 92.4701C10.1507 92.5189 10.0207 92.5432 9.88963 92.5417C9.75858 92.5402 9.62911 92.5129 9.50861 92.4613C9.38811 92.4098 9.27893 92.335 9.18733 92.2413C9.09572 92.1476 9.02348 92.0367 8.97471 91.9151C8.92595 91.7934 8.90164 91.6633 8.90314 91.5323C8.90464 91.4012 8.93195 91.2718 8.98349 91.1513C9.03502 91.0308 9.10979 90.9216 9.20352 90.83C9.29725 90.7384 9.4081 90.6661 9.52975 90.6174C9.66376 90.5647 23.1956 85.1655 47.7804 77.586C48.7106 77.3005 49.6555 77.0149 50.6242 76.7215L51.3766 76.4876C51.4024 76.4779 51.4283 76.4701 51.4546 76.4623C51.7592 76.3756 52.0632 76.283 52.3722 76.1894L52.9082 76.0266C53.1752 75.9458 53.4384 75.8658 53.7079 75.7918C56.1814 75.0394 58.7904 74.2704 61.49 73.4898C66.4673 72.0376 71.6171 70.5845 76.7932 69.1703C76.8093 69.1645 76.8259 69.1606 76.8419 69.1557C81.4372 67.8956 86.086 66.6568 90.6593 65.4776C94.7453 64.4162 98.5584 63.4494 102.316 62.5216C104.802 61.9027 107.334 61.2865 109.91 60.6728C115.883 59.2245 122.118 57.7763 128.435 56.369C133.724 55.1877 138.97 54.0514 144.026 52.9929C163.829 48.8392 184.143 45.086 204.401 41.8367C353.251 17.9531 586.153 7.02297 850.4 90.5929C850.627 90.6646 850.821 90.8153 850.947 91.0177C851.073 91.2201 851.122 91.4608 851.086 91.6963C851.049 91.9318 850.93 92.1465 850.749 92.3017C850.568 92.4568 850.338 92.5421 850.099 92.5422Z" fill="#CCCCCC"/>
<path d="M263.259 418.996C262.913 417.985 262.332 417.072 261.563 416.331C261.278 416.068 260.971 415.831 260.644 415.623C258.04 413.886 254.147 413.497 251.672 415.623C251.423 415.839 251.193 416.076 250.984 416.331C250.245 417.239 249.487 418.128 248.708 418.996C247.431 420.453 246.124 421.86 244.756 423.227C244.367 423.607 243.978 423.996 243.579 424.375C243.349 424.605 243.12 424.824 242.89 425.044C242.012 425.882 241.114 426.69 240.206 427.489C239.727 427.918 239.247 428.337 238.758 428.746C238.03 429.355 237.301 429.964 236.563 430.553C236.493 430.602 236.423 430.652 236.353 430.712C236.333 430.722 236.323 430.742 236.303 430.752C236.293 430.752 236.283 430.752 236.273 430.772C236.246 430.783 236.222 430.8 236.204 430.822C235.984 430.972 235.834 431.071 235.725 431.161C235.764 431.141 235.804 431.111 235.844 431.091C235.665 431.231 235.475 431.371 235.295 431.511C233.549 432.798 231.763 434.035 229.936 435.193C225.418 438.085 220.672 440.605 215.745 442.728C215.415 442.858 215.076 442.997 214.737 443.127C201.837 448.412 187.845 450.474 173.969 449.135C172.552 449.025 171.135 448.876 169.717 448.686C168.081 448.446 166.454 448.157 164.837 447.828C158.682 446.6 152.66 444.782 146.854 442.399C139.59 439.073 132.682 435.02 126.235 430.303C125.237 429.594 124.229 428.886 123.221 428.197C124.369 425.383 125.497 422.569 126.594 419.734C127.143 418.367 127.672 417 128.191 415.623C132.273 405.014 136.105 394.306 139.778 383.557C143.49 372.669 146.993 361.718 150.287 350.703C150.626 349.586 150.955 348.468 151.275 347.35C153.001 341.532 154.658 335.7 156.245 329.855C156.394 329.287 156.554 328.728 156.694 328.159C157.153 326.482 157.602 324.806 158.041 323.129C159.039 319.347 156.784 314.826 152.812 313.917C150.899 313.427 148.871 313.698 147.155 314.674C145.438 315.649 144.167 317.253 143.61 319.147C143.181 320.764 142.752 322.37 142.313 323.987C140.207 331.801 137.991 339.589 135.666 347.35C135.327 348.468 134.987 349.586 134.648 350.703C129.518 367.609 123.886 384.346 117.752 400.912C117.014 402.918 116.265 404.918 115.507 406.91C115.137 407.888 114.768 408.866 114.389 409.844C113.66 411.77 112.912 413.696 112.163 415.623C111.734 416.75 111.295 417.878 110.856 418.996C110.567 419.704 110.287 420.413 110.008 421.112C107.162 420.09 104.214 419.38 101.215 418.996L100.736 418.936C98.4115 418.656 96.0603 418.676 93.7405 418.996C90.2686 419.401 86.928 420.564 83.955 422.402C80.9819 424.24 78.449 426.709 76.5352 429.634C71.7748 437.129 71.8346 447.848 78.5112 454.215C85.3874 460.772 95.7964 460.722 103.89 456.62C108.179 454.3 111.796 450.91 114.389 446.78C115.382 445.283 116.295 443.734 117.123 442.139C117.333 442.279 117.543 442.419 117.752 442.568C118.551 443.127 119.349 443.696 120.137 444.255C124.731 447.583 129.572 450.556 134.618 453.147C145.468 458.541 157.148 462.073 169.169 463.596C169.438 463.626 169.698 463.666 169.967 463.696C171.294 463.865 172.632 463.995 173.969 464.105C193.152 465.551 212.359 461.625 229.437 452.768C230.884 452.019 232.318 451.234 233.739 450.413C235.944 449.135 238.1 447.778 240.206 446.341C241.353 445.562 242.471 444.774 243.579 443.946C248.42 440.38 252.932 436.389 257.062 432.02C258.628 430.373 260.129 428.673 261.563 426.92C262.918 425.486 263.7 423.603 263.758 421.63C263.75 420.729 263.581 419.837 263.259 418.996ZM98.002 442.768C98.2115 442.618 98.4211 442.459 98.6207 442.299C98.5609 442.449 98.2714 442.618 98.002 442.768ZM101.205 439.544C100.976 439.804 100.766 440.063 100.537 440.323C99.8385 441.104 99.0883 441.838 98.2914 442.518C98.1816 442.618 98.0618 442.718 97.9421 442.808C97.9408 442.808 97.9394 442.808 97.9382 442.809C97.937 442.809 97.9359 442.81 97.935 442.811C97.934 442.812 97.9333 442.813 97.9328 442.814C97.9323 442.815 97.9321 442.816 97.9321 442.818C97.7879 442.882 97.6479 442.956 97.5129 443.037C97.0838 443.297 96.6447 443.536 96.1956 443.756C95.3163 444.08 94.4117 444.33 93.4911 444.504C92.7836 444.556 92.0736 444.563 91.3653 444.524H91.3454C90.8565 444.416 90.3736 444.283 89.8983 444.125C89.6588 444.005 89.4292 443.866 89.1997 443.726C89.1099 443.646 89.03 443.566 88.9801 443.516C88.8826 443.427 88.7925 443.331 88.7107 443.227C88.7108 443.226 88.7105 443.224 88.71 443.223C88.7095 443.222 88.7088 443.221 88.7079 443.22C88.7069 443.219 88.7058 443.218 88.7046 443.218C88.7034 443.217 88.7021 443.217 88.7007 443.217C88.5909 443.017 88.4712 442.818 88.3614 442.618C88.3557 442.613 88.3522 442.606 88.3514 442.598C88.2716 442.349 88.2018 442.089 88.1419 441.83C88.1202 441.374 88.1235 440.918 88.1518 440.463C88.2858 439.825 88.4659 439.198 88.6908 438.586C88.8928 438.153 89.1228 437.733 89.3794 437.329C89.3993 437.289 89.4991 437.129 89.6089 436.95C89.6189 436.94 89.6189 436.94 89.6189 436.93C89.7686 436.76 89.9183 436.58 90.078 436.421C90.3474 436.121 90.6369 435.862 90.9263 435.592C91.4891 435.224 92.0722 434.887 92.6728 434.584C93.6255 434.246 94.6031 433.982 95.5969 433.796C97.0622 433.68 98.535 433.693 99.998 433.836C101.384 434.076 102.751 434.413 104.09 434.844C103.278 436.419 102.354 437.933 101.325 439.375C101.285 439.435 101.245 439.495 101.205 439.544ZM90.1079 436.261C90.0199 436.402 89.9161 436.533 89.7985 436.65C89.8777 436.503 89.9824 436.371 90.1079 436.261Z" fill="#3F3D56"/>
<path d="M233.259 317.072C233.17 320.206 233.08 323.339 232.99 326.473C232.8 333.429 232.604 340.388 232.401 347.351C232.191 355.185 231.972 363.016 231.742 370.844C231.633 374.885 231.519 378.927 231.403 382.969C231.094 393.857 230.788 404.742 230.485 415.623C230.455 416.751 230.415 417.869 230.385 418.997C230.235 424.396 230.086 429.795 229.936 435.194C229.766 441.052 229.6 446.91 229.437 452.769C229.317 457.16 229.194 461.554 229.068 465.952C228.17 497.818 227.271 529.684 226.373 561.549C226.335 563.523 225.534 565.405 224.139 566.8C222.743 568.196 220.861 568.996 218.888 569.034C216.908 569.018 215.013 568.225 213.613 566.824C212.213 565.424 211.419 563.53 211.403 561.549C211.902 543.626 212.408 525.702 212.92 507.778C213.369 491.57 213.825 475.363 214.287 459.156C214.437 453.816 214.587 448.474 214.737 443.128C214.966 435.084 215.192 427.04 215.415 418.997C215.445 417.869 215.485 416.751 215.515 415.623C215.535 414.635 215.565 413.657 215.595 412.669C216.034 397.051 216.473 381.429 216.912 365.804C217.092 359.656 217.265 353.505 217.431 347.351C217.631 340.335 217.83 333.322 218.03 326.313C218.12 323.229 218.2 320.156 218.289 317.072C218.327 315.099 219.128 313.217 220.524 311.821C221.919 310.426 223.801 309.625 225.774 309.587C227.755 309.603 229.649 310.397 231.049 311.797C232.45 313.197 233.243 315.092 233.259 317.072Z" fill="#3F3D56"/>
<path d="M643.86 319.149C636.012 348.869 626.631 378.163 615.756 406.913C612.755 414.844 609.685 422.758 606.403 430.578L607.158 428.79C605.693 432.514 603.822 436.066 601.58 439.38C601.427 439.594 601.272 439.805 601.114 440.015C601.889 439.024 602.036 438.828 601.556 439.427C601.302 439.727 601.052 440.028 600.789 440.321C600.091 441.103 599.341 441.838 598.545 442.52C598.345 442.691 598.141 442.859 597.934 443.023L598.87 442.296C598.762 442.552 597.999 442.892 597.762 443.037C596.993 443.501 596.191 443.907 595.362 444.253L597.15 443.498C595.792 444.046 594.375 444.434 592.927 444.657L594.917 444.389C593.495 444.586 592.054 444.601 590.628 444.435L592.618 444.703C591.451 444.542 590.309 444.235 589.22 443.788L591.007 444.542C590.426 444.289 589.866 443.99 589.332 443.648C589.061 443.471 588.229 442.841 589.317 443.672C590.448 444.537 589.463 443.747 589.23 443.517C589.036 443.325 588.861 443.118 588.671 442.923C587.791 442.02 589.666 444.476 589.067 443.421C588.747 442.891 588.455 442.346 588.191 441.787L588.945 443.575C588.602 442.724 588.358 441.836 588.219 440.929L588.486 442.919C588.343 441.791 588.342 440.649 588.483 439.521L588.216 441.511C588.399 440.251 588.732 439.018 589.208 437.838L588.454 439.626C588.786 438.832 589.179 438.065 589.63 437.332C589.837 436.953 590.08 436.595 590.357 436.263C590.406 436.279 589.09 437.772 589.788 437.018C589.971 436.821 590.142 436.613 590.326 436.417C590.622 436.104 590.939 435.818 591.25 435.521C592.292 434.529 589.791 436.485 590.994 435.7C591.866 435.127 592.784 434.626 593.738 434.204L591.95 434.958C593.548 434.302 595.223 433.853 596.935 433.621L594.945 433.889C597.089 433.642 599.255 433.668 601.393 433.965L599.403 433.698C602.11 434.108 604.755 434.852 607.279 435.913L605.491 435.158C610.87 437.468 615.634 440.896 620.389 444.258C624.982 447.584 629.822 450.556 634.866 453.147C645.717 458.542 657.397 462.075 669.419 463.599C686.659 465.711 704.154 463.46 720.299 457.051C736.443 450.643 750.719 440.283 761.818 426.921C763.172 425.485 763.952 423.602 764.01 421.629C763.996 419.646 763.21 417.748 761.818 416.336C759.072 413.815 753.885 413.104 751.233 416.336C748.719 419.404 746.017 422.313 743.142 425.045C741.8 426.319 740.422 427.553 739.008 428.748C738.201 429.43 737.382 430.099 736.552 430.755C736.16 431.065 734.937 431.891 736.815 430.558C736.385 430.863 735.972 431.197 735.547 431.511C729.262 436.144 722.451 440.018 715.256 443.052L717.044 442.298C709.323 445.536 701.214 447.758 692.921 448.907L694.911 448.64C686.38 449.762 677.737 449.749 669.209 448.602L671.199 448.869C662.673 447.698 654.334 445.427 646.392 442.112L648.18 442.867C640.515 439.476 633.242 435.262 626.487 430.301C622.972 427.698 619.264 425.365 615.396 423.321C610.891 421.02 606.012 419.537 600.988 418.941C591.568 417.833 581.969 421.502 576.79 429.64C572.024 437.13 572.086 447.847 578.76 454.216C585.634 460.775 596.043 460.72 604.144 456.617C611.946 452.665 616.632 444.456 619.927 436.715C627.344 419.295 633.91 401.472 640.027 383.559C646.079 365.836 651.567 347.935 656.492 329.854C657.102 327.614 657.703 325.373 658.295 323.129C659.294 319.347 657.037 314.825 653.068 313.921C651.155 313.429 649.125 313.699 647.407 314.674C645.69 315.649 644.418 317.254 643.86 319.149Z" fill="#3F3D56"/>
<path d="M718.543 317.071L715.849 412.671L713.169 507.774L711.653 561.549C711.67 563.529 712.464 565.423 713.864 566.823C715.264 568.223 717.158 569.017 719.138 569.034C721.111 568.996 722.993 568.195 724.388 566.8C725.784 565.404 726.585 563.523 726.623 561.549L729.317 465.949L731.997 370.846L733.513 317.071C733.496 315.091 732.702 313.197 731.302 311.797C729.902 310.397 728.008 309.603 726.028 309.586C724.055 309.624 722.173 310.425 720.777 311.82C719.382 313.216 718.581 315.098 718.543 317.071Z" fill="#3F3D56"/>
<path opacity="0.2" d="M459.466 534.858H461.79V429.029H516.01V426.711H461.79V382.056H503.662C503.048 381.276 502.416 380.505 501.767 379.744H461.79V350.251C461.022 349.923 460.247 349.607 459.466 349.309V379.744H413.906V341.955C413.125 341.991 412.357 342.044 411.582 342.11V379.744H375.235V351.55C374.454 351.895 373.686 352.259 372.923 352.64V379.744H342.368V382.056H372.923V426.711H342.368V429.029H372.923V534.858H375.235V429.029C380.008 429.028 384.735 429.968 389.145 431.794C393.556 433.62 397.563 436.297 400.938 439.673C404.314 443.048 406.991 447.055 408.817 451.466C410.643 455.876 411.583 460.603 411.582 465.376V534.858H413.906V429.029H459.466V534.858ZM375.235 426.711V382.056H411.582V426.711H375.235ZM413.906 426.711V382.056H414.818C420.682 382.057 426.488 383.212 431.905 385.456C437.322 387.701 442.244 390.99 446.39 395.137C450.536 399.283 453.825 404.206 456.069 409.623C458.312 415.041 459.467 420.847 459.466 426.711H413.906Z" fill="black"/>
<path d="M445.272 503.126C442.346 516.179 435.337 527.959 425.263 536.759C424.524 537.397 423.786 538.016 423.017 538.625C421.151 538.794 419.298 538.967 417.458 539.144C415.931 539.283 414.424 539.433 412.927 539.573L412.658 539.603L412.468 537.966L411.71 531.339C408.768 526.536 406.944 521.132 406.374 515.527C405.804 509.923 406.502 504.262 408.417 498.965C411.051 491.859 415.822 485.582 420.512 479.354C426.989 470.751 433.286 462.249 433.516 451.76C436.703 455.838 439.353 460.309 441.4 465.063C439.468 465.972 437.732 467.25 436.29 468.825C435.881 469.274 435.472 469.903 435.751 470.442C435.991 470.901 436.59 471.011 437.109 471.071C438.356 471.201 439.614 471.33 440.861 471.46C441.859 471.57 442.857 471.67 443.855 471.779C445.063 475.742 445.881 479.813 446.3 483.935C446.973 490.346 446.626 496.824 445.272 503.126Z" fill="#3F3D56"/>
<path d="M478.406 476.97C472.518 481.251 469.075 487.409 466.4 494.195C463.659 495.072 461.193 496.648 459.244 498.766C458.835 499.215 458.426 499.844 458.705 500.383C458.945 500.842 459.544 500.952 460.063 501.011C461.31 501.141 462.568 501.271 463.815 501.401C461.141 509.424 458.685 517.728 453.955 524.504C450.809 528.978 446.708 532.697 441.949 535.392C440.652 536.132 439.312 536.795 437.937 537.378C432.867 537.767 427.894 538.183 423.017 538.626C421.151 538.795 419.298 538.968 417.459 539.145C415.932 539.284 414.425 539.434 412.928 539.574C412.918 539.025 412.918 538.476 412.928 537.927C413.243 523.305 418.622 509.246 428.147 498.147C428.596 497.628 429.055 497.119 429.524 496.61C434.35 491.456 440.024 487.169 446.3 483.936C456.19 478.794 467.274 476.389 478.406 476.97Z" fill="#2795DB"/>
<path d="M419.185 534.024L418.037 537.418L417.459 539.144C415.932 539.284 414.425 539.434 412.928 539.573L412.658 539.603C411.002 539.773 409.355 539.943 407.708 540.112C407.279 539.613 406.85 539.104 406.431 538.585C396.014 525.971 391.014 509.746 392.523 493.456C394.032 477.167 401.928 462.136 414.484 451.65C413.167 458.547 414.704 465.153 417.229 471.71C416.959 471.82 416.7 471.93 416.451 472.049C414.519 472.959 412.783 474.237 411.341 475.812C410.932 476.261 410.522 476.89 410.802 477.428C411.041 477.888 411.64 477.997 412.159 478.057C413.407 478.187 414.664 478.317 415.912 478.446C416.91 478.556 417.908 478.656 418.906 478.766C419.375 478.816 419.844 478.866 420.313 478.915C420.383 479.065 420.443 479.205 420.512 479.355C423.357 485.522 426.42 491.72 428.147 498.147C428.58 499.759 428.92 501.395 429.165 503.047C429.933 508.628 429.435 514.311 427.708 519.674C425.98 525.036 423.067 529.941 419.185 534.024Z" fill="#2795DB"/>
<path d="M519.641 389.277C511.049 372.519 497.739 358.418 482.084 348.056C466.379 337.709 448.358 331.407 429.627 329.713C427.172 329.49 424.711 329.36 422.243 329.321C419.328 329.278 375.471 341.928 360.78 352.257C346.096 362.461 334.018 375.974 325.518 391.705C317.033 407.522 312.86 425.294 313.417 443.235C314.144 461.283 319.175 478.897 328.09 494.607C336.883 510.266 349.369 523.54 364.461 533.275C379.768 543.042 395.144 568.939 413.217 569.853C431.426 570.774 452.193 546.345 468.8 538.928C485.408 531.449 499.765 519.748 510.442 504.991C520.817 490.53 527.529 473.767 530.001 456.142C532.57 438.095 531.373 419.483 525.21 402.234C523.628 397.802 521.768 393.474 519.641 389.277C517.865 385.779 512.659 384.491 509.4 386.592C507.721 387.626 506.505 389.267 506.005 391.174C505.505 393.081 505.759 395.108 506.715 396.833C507.758 398.887 508.728 400.975 509.624 403.098L508.87 401.31C512.263 409.468 514.57 418.037 515.732 426.796L515.465 424.807C516.701 434.31 516.679 443.934 515.399 453.431L515.666 451.442C514.373 460.938 511.838 470.224 508.127 479.06L508.881 477.272C506.973 481.781 504.748 486.149 502.223 490.344C500.944 492.464 499.586 494.533 498.151 496.553C497.521 497.44 496.871 498.311 496.216 499.179C495.361 500.312 497.38 497.699 496.498 498.811C496.347 499 496.198 499.19 496.047 499.379C495.593 499.945 495.134 500.507 494.668 501.063C491.556 504.775 488.16 508.24 484.512 511.426C483.603 512.219 482.679 512.994 481.739 513.752C481.272 514.13 480.809 514.523 480.321 514.875C480.34 514.861 481.898 513.678 480.976 514.365C480.686 514.581 480.398 514.8 480.108 515.015C478.172 516.449 476.184 517.811 474.145 519.099C469.452 522.056 464.527 524.63 459.42 526.797L461.207 526.042C452.397 529.751 443.137 532.285 433.666 533.578L435.656 533.311C426.19 534.59 416.595 534.607 407.125 533.361L409.114 533.629C400.507 532.473 392.087 530.197 384.069 526.858L385.857 527.612C381.214 525.652 376.736 523.319 372.468 520.636C370.356 519.305 368.299 517.892 366.297 516.397C366.012 516.184 365.728 515.967 365.444 515.753C364.53 515.063 366.1 516.261 366.113 516.269C365.582 515.888 365.07 515.48 364.581 515.047C363.614 514.26 362.662 513.454 361.725 512.63C357.977 509.329 354.477 505.757 351.253 501.942C350.446 500.988 349.656 500.02 348.884 499.038C348.549 498.612 347.939 497.75 349.287 499.565C349.11 499.326 348.926 499.092 348.747 498.855C348.317 498.284 347.892 497.709 347.474 497.13C346.008 495.102 344.615 493.025 343.294 490.897C340.31 486.081 337.706 481.04 335.504 475.819L336.259 477.607C332.657 469.038 330.195 460.033 328.933 450.824L329.201 452.814C328.063 444.325 328.047 435.723 329.152 427.229L328.885 429.219C330.019 420.994 332.232 412.955 335.466 405.308L334.712 407.096C336.747 402.309 339.148 397.686 341.893 393.268C343.267 391.057 344.723 388.899 346.261 386.796C346.611 386.318 346.964 385.843 347.322 385.371C347.645 384.944 348.534 383.881 347.017 385.759C347.166 385.575 347.309 385.385 347.456 385.199C348.3 384.13 349.165 383.077 350.05 382.041C353.401 378.118 357.031 374.442 360.911 371.042C361.892 370.183 362.888 369.341 363.9 368.518C364.36 368.144 364.822 367.774 365.288 367.408C365.474 367.261 365.663 367.117 365.849 366.97C363.855 368.556 365.295 367.402 365.747 367.063C367.832 365.5 369.973 364.016 372.17 362.61C377.052 359.488 382.189 356.781 387.525 354.519L385.737 355.273C393.482 352.021 427.793 344.346 434.034 345.184L432.044 344.916C441.217 346.197 450.182 348.674 458.71 352.284L456.922 351.529C461.244 353.365 465.445 355.474 469.497 357.846C471.522 359.033 473.507 360.285 475.453 361.601C476.373 362.224 477.284 362.861 478.185 363.512C478.636 363.837 479.083 364.166 479.529 364.499C479.776 364.683 480.022 364.871 480.269 365.056C481.306 365.833 478.84 363.93 479.927 364.79C483.566 367.648 487.022 370.733 490.274 374.024C491.872 375.651 493.414 377.329 494.902 379.059C495.665 379.947 496.412 380.848 497.144 381.761C497.507 382.215 498.745 383.858 497.228 381.846C497.599 382.338 497.974 382.826 498.34 383.322C501.494 387.591 504.295 392.109 506.715 396.833C508.504 400.323 513.688 401.625 516.956 399.518C518.635 398.484 519.852 396.843 520.352 394.936C520.852 393.028 520.597 391.001 519.641 389.277Z" fill="#3F3D56"/>
<path d="M432.426 511.426C431.654 511.461 430.889 511.258 430.235 510.845C429.582 510.431 429.071 509.826 428.773 509.113C428.474 508.399 428.403 507.611 428.567 506.855C428.732 506.099 429.124 505.413 429.692 504.888C429.787 504.509 429.856 504.238 429.951 503.86C429.917 503.778 429.883 503.695 429.848 503.613C426.375 495.332 404.215 518.417 403.257 526.2C402.835 529.64 403.013 533.127 403.783 536.506C396.605 520.848 392.877 503.829 392.853 486.604C392.852 482.282 393.092 477.962 393.572 473.667C393.97 470.145 394.521 466.649 395.226 463.177C399.073 444.342 407.334 426.688 419.329 411.665C426.189 412.048 432.201 411.002 432.781 397.707C432.885 395.342 434.639 393.295 435.025 390.965C434.37 391.051 433.705 391.105 433.05 391.147C432.846 391.158 432.631 391.169 432.427 391.18L432.35 391.183C431.631 391.215 430.917 391.039 430.295 390.675C429.673 390.311 429.17 389.775 428.845 389.132C428.521 388.488 428.39 387.765 428.467 387.049C428.544 386.332 428.827 385.654 429.281 385.094C429.564 384.746 429.846 384.398 430.13 384.051C430.559 383.514 430.999 382.988 431.429 382.451C431.478 382.4 431.525 382.346 431.568 382.29C432.062 381.678 432.556 381.077 433.05 380.465C432.148 379.066 430.936 377.894 429.507 377.04C424.557 374.141 417.729 376.149 414.154 380.626C410.568 385.103 409.892 391.384 411.137 396.977C412.362 401.737 414.388 406.253 417.128 410.333C416.86 410.677 416.58 411.01 416.312 411.353C411.405 417.662 407.129 424.437 403.544 431.581C404.558 423.658 392.155 395.046 387.359 388.986C381.598 381.706 369.783 384.883 368.768 394.111C368.758 394.2 368.749 394.29 368.739 394.379C369.452 394.781 370.149 395.208 370.832 395.659C371.689 396.232 372.353 397.05 372.737 398.007C373.121 398.963 373.208 400.014 372.985 401.02C372.762 402.027 372.24 402.942 371.488 403.647C370.735 404.352 369.788 404.813 368.769 404.97L368.664 404.987C359.128 418.603 389.699 454.042 397.352 446.085C393.75 456.292 391.491 466.924 390.631 477.714C390.144 484.08 390.173 490.475 390.717 496.836L390.684 496.61C388.984 482.756 359.815 462.157 351.297 463.873C346.391 464.861 341.558 464.637 342.303 469.586C342.315 469.665 342.327 469.744 342.339 469.823C343.661 470.362 344.948 470.982 346.193 471.68C346.906 472.082 347.603 472.509 348.285 472.96C349.143 473.533 349.807 474.351 350.191 475.308C350.575 476.265 350.661 477.315 350.438 478.322C350.215 479.328 349.694 480.244 348.941 480.949C348.189 481.654 347.241 482.115 346.222 482.272L346.118 482.288C346.043 482.299 345.978 482.309 345.903 482.32C341.562 497.256 373.755 521.362 393.326 513.692H393.336C395.276 522.12 398.086 530.323 401.721 538.17H431.676C431.783 537.838 431.88 537.494 431.976 537.161C429.204 537.335 426.42 537.17 423.688 536.667C425.91 533.94 428.133 531.192 430.355 528.465C430.405 528.414 430.451 528.36 430.495 528.304C431.622 526.908 432.76 525.523 433.887 524.127L433.888 524.126C433.948 519.847 433.457 515.579 432.427 511.426L432.426 511.426ZM398.125 443.949L398.14 443.927L398.125 443.97V443.949ZM391.49 503.761L391.232 503.181C391.243 502.762 391.243 502.343 391.232 501.914C391.232 501.796 391.211 501.678 391.211 501.56C391.307 502.3 391.393 503.041 391.5 503.782L391.49 503.761Z" fill="#3F3D56"/>
<path d="M95.8561 449.095C101.919 449.095 106.834 444.18 106.834 438.118C106.834 432.055 101.919 427.14 95.8561 427.14C89.7931 427.14 84.8782 432.055 84.8782 438.118C84.8782 444.18 89.7931 449.095 95.8561 449.095Z" fill="#3F3D56"/>
<path d="M227.591 568.854C233.654 568.854 238.569 563.939 238.569 557.876C238.569 551.813 233.654 546.898 227.591 546.898C221.528 546.898 216.613 551.813 216.613 557.876C216.613 563.939 221.528 568.854 227.591 568.854Z" fill="#3F3D56"/>
<path d="M727.584 568.854C733.647 568.854 738.562 563.939 738.562 557.876C738.562 551.813 733.647 546.898 727.584 546.898C721.521 546.898 716.606 551.813 716.606 557.876C716.606 563.939 721.521 568.854 727.584 568.854Z" fill="#3F3D56"/>
<path d="M754.53 429.135C760.593 429.135 765.508 424.22 765.508 418.158C765.508 412.095 760.593 407.18 754.53 407.18C748.467 407.18 743.552 412.095 743.552 418.158C743.552 424.22 748.467 429.135 754.53 429.135Z" fill="#3F3D56"/>
<path d="M722.594 327.341C728.657 327.341 733.572 322.426 733.572 316.363C733.572 310.3 728.657 305.385 722.594 305.385C716.531 305.385 711.616 310.3 711.616 316.363C711.616 322.426 716.531 327.341 722.594 327.341Z" fill="#3F3D56"/>
<path d="M264.516 418.158C264.51 420.962 263.425 423.656 261.488 425.683C259.55 427.71 256.907 428.914 254.106 429.047C251.305 429.179 248.56 428.23 246.439 426.395C244.319 424.56 242.985 421.98 242.714 419.189C242.442 416.398 243.254 413.61 244.982 411.401C246.709 409.192 249.22 407.732 251.994 407.322C254.768 406.913 257.593 407.585 259.885 409.201C262.177 410.817 263.76 413.252 264.307 416.002C264.448 416.712 264.518 417.434 264.516 418.158Z" fill="#3F3D56"/>
<path d="M484.074 359.276C490.137 359.276 495.052 354.361 495.052 348.298C495.052 342.235 490.137 337.32 484.074 337.32C478.011 337.32 473.096 342.235 473.096 348.298C473.096 354.361 478.011 359.276 484.074 359.276Z" fill="#3F3D56"/>
<path d="M375.293 348.298C375.287 351.103 374.202 353.797 372.265 355.824C370.327 357.851 367.684 359.055 364.883 359.188C362.082 359.32 359.337 358.371 357.217 356.536C355.096 354.701 353.762 352.121 353.491 349.33C353.219 346.539 354.031 343.751 355.759 341.542C357.486 339.333 359.997 337.872 362.771 337.463C365.545 337.053 368.37 337.726 370.662 339.342C372.954 340.957 374.537 343.392 375.084 346.143C375.225 346.853 375.295 347.575 375.293 348.298Z" fill="#3F3D56"/>
<path d="M233.579 316.363C233.572 319.167 232.488 321.861 230.55 323.888C228.612 325.915 225.969 327.119 223.168 327.252C220.367 327.385 217.623 326.435 215.502 324.6C213.381 322.765 212.048 320.186 211.776 317.395C211.505 314.604 212.317 311.815 214.044 309.606C215.772 307.397 218.282 305.937 221.056 305.527C223.83 305.118 226.656 305.791 228.948 307.406C231.24 309.022 232.823 311.457 233.369 314.207C233.51 314.917 233.58 315.639 233.579 316.363Z" fill="#3F3D56"/>
<path d="M598.843 453.088C604.906 453.088 609.821 448.173 609.821 442.11C609.821 436.047 604.906 431.132 598.843 431.132C592.78 431.132 587.865 436.047 587.865 442.11C587.865 448.173 592.78 453.088 598.843 453.088Z" fill="#3F3D56"/>
<path d="M426.191 353.288C435.01 353.288 442.159 346.139 442.159 337.32C442.159 328.502 435.01 321.353 426.191 321.353C417.372 321.353 410.223 328.502 410.223 337.32C410.223 346.139 417.372 353.288 426.191 353.288Z" fill="#3F3D56"/>
</svg>
