<svg width="33" height="25" viewBox="0 0 33 25" fill="none" xmlns="http://www.w3.org/2000/svg">
<path d="M16.9244 0C12.4155 0 8.80498 2.05357 6.17664 4.49777C3.56503 6.91964 1.81838 9.82143 0.992484 11.8136C0.808332 12.2545 0.808332 12.7455 0.992484 13.1864C1.81838 15.1786 3.56503 18.0804 6.17664 20.5022C8.80498 22.9464 12.4155 25 16.9244 25C21.4333 25 25.0438 22.9464 27.6722 20.5022C30.2838 18.0748 32.0304 15.1786 32.8619 13.1864C33.0461 12.7455 33.0461 12.2545 32.8619 11.8136C32.0304 9.82143 30.2838 6.91964 27.6722 4.49777C25.0438 2.05357 21.4333 0 16.9244 0ZM8.88869 12.5C8.88869 10.3688 9.73531 8.32488 11.2423 6.81789C12.7493 5.3109 14.7932 4.46429 16.9244 4.46429C19.0556 4.46429 21.0995 5.3109 22.6065 6.81789C24.1135 8.32488 24.9601 10.3688 24.9601 12.5C24.9601 14.6312 24.1135 16.6751 22.6065 18.1821C21.0995 19.6891 19.0556 20.5357 16.9244 20.5357C14.7932 20.5357 12.7493 19.6891 11.2423 18.1821C9.73531 16.6751 8.88869 14.6312 8.88869 12.5ZM16.9244 8.92857C16.9244 10.8984 15.3228 12.5 13.353 12.5C12.9568 12.5 12.5773 12.433 12.2202 12.3158C11.9132 12.2154 11.5561 12.4051 11.5673 12.7288C11.584 13.1138 11.6398 13.4989 11.7458 13.8839C12.5103 16.7411 15.4512 18.4375 18.3083 17.673C21.1655 16.9085 22.8619 13.9676 22.0974 11.1105C21.478 8.79464 19.43 7.23772 17.1532 7.14286C16.8295 7.1317 16.6398 7.48326 16.7403 7.79576C16.8574 8.1529 16.9244 8.53237 16.9244 8.92857Z" fill="black"/>
</svg>
