<svg width="25" height="25" viewBox="0 0 25 25" fill="none" xmlns="http://www.w3.org/2000/svg">
<g clip-path="url(#clip0_631_1003)">
<path d="M24.5 12.7661C24.5 11.7823 24.4183 11.0643 24.2415 10.3198H12.7449V14.7604H19.4931C19.3571 15.8639 18.6224 17.5258 16.9897 18.6426L16.9669 18.7912L20.6019 21.543L20.8537 21.5676C23.1666 19.4802 24.5 16.409 24.5 12.7661Z" fill="#4285F4"/>
<path d="M12.745 24.4659C16.051 24.4659 18.8265 23.4022 20.8538 21.5675L16.9898 18.6425C15.9558 19.3471 14.568 19.839 12.745 19.839C9.50688 19.839 6.75861 17.7518 5.77892 14.8667L5.63532 14.8786L1.85558 17.7371L1.80615 17.8714C3.81974 21.7801 7.9558 24.4659 12.745 24.4659Z" fill="#34A853"/>
<path d="M5.77886 14.8664C5.52036 14.1219 5.37076 13.3241 5.37076 12.4998C5.37076 11.6755 5.52036 10.8778 5.76526 10.1333L5.75841 9.97471L1.93131 7.07031L1.80609 7.12851C0.976196 8.75055 0.5 10.572 0.5 12.4998C0.5 14.4276 0.976196 16.249 1.80609 17.8711L5.77886 14.8664Z" fill="#FBBC05"/>
<path d="M12.745 5.16089C15.0442 5.16089 16.5952 6.13144 17.4796 6.9425L20.9354 3.64527C18.813 1.71746 16.051 0.53418 12.745 0.53418C7.9558 0.53418 3.81974 3.2198 1.80615 7.12857L5.76532 10.1333C6.75861 7.24827 9.50689 5.16089 12.745 5.16089Z" fill="#EB4335"/>
</g>
<defs>
<clipPath id="clip0_631_1003">
<rect width="24" height="24" fill="white" transform="translate(0.5 0.5)"/>
</clipPath>
</defs>
</svg>
