<svg width="48" height="48" viewBox="0 0 48 48" fill="none" xmlns="http://www.w3.org/2000/svg">
<g clip-path="url(#clip0_742_684)">
<path d="M24 32C23.45 32 22.9792 31.8042 22.5875 31.4125C22.1958 31.0208 22 30.55 22 30C22 29.45 22.1958 28.9792 22.5875 28.5875C22.9792 28.1958 23.45 28 24 28C24.55 28 25.0208 28.1958 25.4125 28.5875C25.8042 28.9792 26 29.45 26 30C26 30.55 25.8042 31.0208 25.4125 31.4125C25.0208 31.8042 24.55 32 24 32ZM24 26C23.45 26 22.9792 25.8042 22.5875 25.4125C22.1958 25.0208 22 24.55 22 24C22 23.45 22.1958 22.9792 22.5875 22.5875C22.9792 22.1958 23.45 22 24 22C24.55 22 25.0208 22.1958 25.4125 22.5875C25.8042 22.9792 26 23.45 26 24C26 24.55 25.8042 25.0208 25.4125 25.4125C25.0208 25.8042 24.55 26 24 26ZM24 20C23.45 20 22.9792 19.8042 22.5875 19.4125C22.1958 19.0208 22 18.55 22 18C22 17.45 22.1958 16.9792 22.5875 16.5875C22.9792 16.1958 23.45 16 24 16C24.55 16 25.0208 16.1958 25.4125 16.5875C25.8042 16.9792 26 17.45 26 18C26 18.55 25.8042 19.0208 25.4125 19.4125C25.0208 19.8042 24.55 20 24 20Z" fill="#1C1B1F"/>
</g>
<defs>
<clipPath id="clip0_742_684">
<rect width="48" height="48" fill="white"/>
</clipPath>
</defs>
</svg>
