<svg width="762" height="702" viewBox="0 0 762 702" fill="none" xmlns="http://www.w3.org/2000/svg">
<g clip-path="url(#clip0_629_1656)">
<path d="M42.1341 249.568C54.5625 272.617 80.9401 282.512 80.9401 282.512C80.9401 282.512 87.1672 255.036 74.7388 231.987C62.3104 208.938 35.9328 199.044 35.9328 199.044C35.9328 199.044 29.7057 226.519 42.1341 249.568Z" fill="#2F2E41"/>
<path d="M50.6765 241.985C73.115 255.485 81.7567 282.299 81.7567 282.299C81.7567 282.299 54.0186 287.226 31.5802 273.726C9.14174 260.226 0.5 233.412 0.5 233.412C0.5 233.412 28.2381 228.485 50.6765 241.985Z" fill="#2795DB"/>
<path d="M761.5 624.355C761.5 648.656 703.745 701.355 632.5 701.355C561.255 701.355 503.5 648.656 503.5 624.355C503.5 600.055 561.255 613.355 632.5 613.355C703.745 613.355 761.5 600.055 761.5 624.355Z" fill="#3F3D56"/>
<path opacity="0.1" d="M761.5 624.355C761.5 648.656 703.745 701.355 632.5 701.355C561.255 701.355 503.5 648.656 503.5 624.355C503.5 600.055 561.255 613.355 632.5 613.355C703.745 613.355 761.5 600.055 761.5 624.355Z" fill="black"/>
<path d="M632.5 668.355C703.745 668.355 761.5 648.656 761.5 624.355C761.5 600.055 703.745 580.355 632.5 580.355C561.255 580.355 503.5 600.055 503.5 624.355C503.5 648.656 561.255 668.355 632.5 668.355Z" fill="#3F3D56"/>
<path d="M486.5 302.355H76.5V536.355H486.5V302.355Z" fill="#F1F1F1"/>
<path d="M678 78.3552C699.815 78.3552 717.5 61.7898 717.5 41.3552C717.5 20.9207 699.815 4.35522 678 4.35522C656.185 4.35522 638.5 20.9207 638.5 41.3552C638.5 61.7898 656.185 78.3552 678 78.3552Z" fill="#2F2E41"/>
<path d="M563 271.855L553 285.855C553 285.855 505 295.855 523 310.855C541 325.855 567 296.855 567 296.855L581 278.855L563 271.855Z" fill="#FFB8B8"/>
<path d="M615 112.855C615 112.855 602 112.855 599 130.855C596 148.855 593 208.855 593 208.855C593 208.855 551 263.855 558 270.855C565 277.855 573 290.855 578 288.855C583 286.855 626 227.855 626 227.855L615 112.855Z" fill="#2795DB"/>
<path opacity="0.1" d="M615 112.855C615 112.855 602 112.855 599 130.855C596 148.855 593 208.855 593 208.855C593 208.855 551 263.855 558 270.855C565 277.855 573 290.855 578 288.855C583 286.855 626 227.855 626 227.855L615 112.855Z" fill="black"/>
<path d="M655 61.8552C655 61.8552 654 100.855 642 102.855C630 104.855 634 117.855 634 117.855C634 117.855 673 140.855 699 117.855L704 105.855C704 105.855 686 92.8552 694 74.8552L655 61.8552Z" fill="#FFB8B8"/>
<path d="M588 301.855C588 301.855 529 411.855 551 445.855C573 479.855 606 549.855 611 549.855C616 549.855 644 535.855 642 526.855C640 517.855 610 450.855 602 444.855C594 438.855 598 422.855 599 421.855C600 420.855 633 367.855 633 367.855C633 367.855 632 451.855 636 464.855C640 477.855 635 570.855 640 574.855C645 578.855 668 585.855 672 579.855C676 573.855 688 482.855 680 461.855L695 317.855L588 301.855Z" fill="#2F2E41"/>
<path d="M642 568.855L617 614.855C617 614.855 581 640.855 606 644.855C631 648.855 646 638.855 646 638.855L668 622.855V576.855L642 568.855Z" fill="#2F2E41"/>
<path d="M608 542.855L621 573.855C621 573.855 626 586.855 621 589.855C616 592.855 602 610.855 611 612.855C612.811 613.21 614.65 613.393 616.495 613.401C623.99 613.528 631.432 612.136 638.375 609.311C645.317 606.486 651.616 602.285 656.893 596.962L665 588.855C665 588.855 637.23 524.907 637.615 525.381C638 525.855 608 542.855 608 542.855Z" fill="#2F2E41"/>
<path d="M680 85.8552C698.778 85.8552 714 70.6329 714 51.8552C714 33.0775 698.778 17.8552 680 17.8552C661.222 17.8552 646 33.0775 646 51.8552C646 70.6329 661.222 85.8552 680 85.8552Z" fill="#FFB8B8"/>
<path d="M699.5 99.3553L689 109.855C689 109.855 657 121.855 642 109.855C642 109.855 647.5 98.3553 647.5 99.3553C647.5 100.355 604 106.855 600 124.855C596 142.855 603 173.855 603 173.855C603 173.855 575 305.855 586 308.855C597 311.855 700 336.855 699 317.855C698 298.855 707 220.855 707 220.855L742 153.855C742 153.855 737 131.855 725 124.855C713 117.855 699.5 99.3553 699.5 99.3553Z" fill="#2795DB"/>
<path d="M655 294.855L642 302.855C642 302.855 592 336.855 618 342.855C644 348.855 659 318.855 659 318.855L669 306.855L655 294.855Z" fill="#FFB8B8"/>
<path opacity="0.1" d="M729 147.855L738 156.855C738 156.855 744 240.855 732 257.855C720 274.855 665 320.855 662 317.855C659 314.855 640 299.855 644 297.855C648 295.855 701.183 240.286 701.183 240.286L697 162.855L729 147.855Z" fill="black"/>
<path d="M733 144.855L742 153.855C742 153.855 748 237.855 736 254.855C724 271.855 669 317.855 666 314.855C663 311.855 644 296.855 648 294.855C652 292.855 705.183 237.286 705.183 237.286L701 159.855L733 144.855Z" fill="#2795DB"/>
<path d="M665.938 3.56038C665.938 3.56038 654.381 -0.642356 638.621 8.28844L647.026 10.3898C647.026 10.3898 634.418 11.4405 632.842 28.2514H638.621C638.621 28.2514 634.943 42.961 638.621 47.1637L640.985 42.6983L647.814 56.3572L649.39 49.5277L652.542 50.5784L654.643 39.5462C654.643 39.5462 659.897 47.4263 664.1 47.9517V41.1223C664.1 41.1223 675.657 54.2558 679.334 53.7305L674.081 46.3757L681.436 47.9517L678.284 42.6983L697.196 47.9517L692.993 42.6983L706.127 46.901L712.431 49.5277C712.431 49.5277 721.362 29.0394 708.754 14.8552C696.145 0.670976 677.758 -2.48104 665.938 3.56038Z" fill="#2F2E41"/>
<path d="M335.598 429.438C334.758 429.967 333.889 430.458 332.991 430.911C325.686 434.585 317.221 435.212 309.455 432.653C301.689 430.094 295.255 424.559 291.564 417.262L284.912 404.071L289.377 401.82L296.029 415.011C297.556 418.043 299.666 420.744 302.237 422.961C304.809 425.177 307.792 426.865 311.015 427.929C314.239 428.992 317.641 429.409 321.027 429.157C324.412 428.905 327.715 427.989 330.746 426.46C333.777 424.932 336.477 422.821 338.692 420.248C340.907 417.675 342.593 414.692 343.655 411.467C344.716 408.242 345.132 404.84 344.878 401.455C344.625 398.07 343.706 394.768 342.176 391.737L314.239 336.344C312.711 333.314 310.601 330.615 308.03 328.4C305.459 326.185 302.476 324.499 299.253 323.437C296.03 322.375 292.629 321.958 289.245 322.211C285.861 322.463 282.559 323.379 279.529 324.907C276.499 326.436 273.8 328.546 271.585 331.117C269.371 333.688 267.684 336.671 266.623 339.894C265.561 343.117 265.144 346.518 265.396 349.902C265.648 353.286 266.565 356.588 268.093 359.618L277.984 379.23L273.519 381.481L263.628 361.869C259.948 354.565 259.319 346.099 261.879 338.332C264.44 330.565 269.98 324.133 277.282 320.451C284.585 316.768 293.05 316.137 300.818 318.695C308.586 321.253 315.02 326.792 318.704 334.093L346.641 389.486C350.091 396.328 350.871 404.208 348.83 411.593C346.788 418.978 342.072 425.339 335.598 429.438Z" fill="#3F3D56"/>
<path d="M338.3 497.81C337.472 498.332 336.613 498.817 335.723 499.267C328.417 502.941 319.953 503.567 312.187 501.008C304.421 498.449 297.987 492.914 294.296 485.618L266.36 430.224C262.677 422.92 262.046 414.453 264.605 406.684C267.165 398.915 272.707 392.481 280.01 388.798C287.314 385.115 295.781 384.484 303.55 387.043C311.319 389.603 317.753 395.145 321.436 402.448L328.775 417L324.31 419.251L316.971 404.699C315.443 401.669 313.333 398.97 310.762 396.755C308.19 394.541 305.208 392.854 301.985 391.792C298.762 390.73 295.361 390.314 291.977 390.566C288.593 390.818 285.291 391.735 282.261 393.263C279.231 394.791 276.532 396.901 274.317 399.472C272.103 402.044 270.416 405.026 269.354 408.249C268.292 411.472 267.876 414.873 268.128 418.257C268.38 421.641 269.297 424.943 270.825 427.973L298.761 483.366C300.288 486.398 302.398 489.1 304.969 491.316C307.54 493.533 310.523 495.221 313.747 496.284C316.971 497.347 320.373 497.765 323.759 497.513C327.144 497.261 330.447 496.344 333.478 494.816C336.509 493.287 339.209 491.176 341.424 488.603C343.639 486.031 345.325 483.047 346.387 479.822C347.448 476.598 347.864 473.196 347.61 469.81C347.356 466.425 346.438 463.123 344.908 460.093L335.292 441.026L339.757 438.775L349.373 457.842C352.815 464.69 353.589 472.574 351.542 479.961C349.496 487.347 344.776 493.709 338.3 497.81Z" fill="#3F3D56"/>
<path d="M537.5 538.355H75.5V281.355H537.5V538.355ZM77.5 536.355H535.5V283.355H77.5V536.355Z" fill="#2F2E41"/>
</g>
<defs>
<clipPath id="clip0_629_1656">
<rect width="761" height="700.71" fill="white" transform="translate(0.5 0.64502)"/>
</clipPath>
</defs>
</svg>
