<svg width="80" height="80" viewBox="0 0 80 80" fill="none" xmlns="http://www.w3.org/2000/svg">
<rect x="1" y="1" width="78" height="78" rx="5.25" fill="#90CDF4"/>
<g clip-path="url(#clip0_658_1125)">
<circle cx="7.5" cy="7.57031" r="2" stroke="black"/>
<circle cx="72.5" cy="7.57031" r="2" stroke="black"/>
</g>
<path d="M49.4238 37.2105C49.2438 36.9985 49.0528 36.7941 48.8507 36.5975C47.207 35.0016 44.9974 34.123 42.7066 34.1543C40.4158 34.1856 38.231 35.1243 36.6315 36.7645L33.7452 39.7311L34.7494 40.7079L37.6358 37.7413C38.2987 37.0593 39.0895 36.5146 39.963 36.1383C40.8365 35.7619 41.7756 35.5614 42.7267 35.5481C43.6777 35.5349 44.622 35.7091 45.5057 36.061C46.3894 36.4128 47.195 36.9353 47.8767 37.5985C48.5584 38.2618 49.1027 39.053 49.4785 39.9267C49.8544 40.8004 50.0544 41.7396 50.0671 42.6907C50.0798 43.6417 49.9051 44.5859 49.5528 45.4694C49.2005 46.3529 48.6775 47.1583 48.0138 47.8396L35.8923 60.2975C35.2293 60.9789 34.4385 61.5231 33.5651 61.8989C32.6918 62.2747 31.7529 62.4748 30.8022 62.4878C29.8515 62.5008 28.9076 62.3264 28.0243 61.9746C27.141 61.6228 26.3356 61.1005 25.6542 60.4374C24.9727 59.7743 24.4286 58.9836 24.0527 58.1102C23.6769 57.2368 23.4768 56.298 23.4638 55.3473C23.4508 54.3966 23.6252 53.4526 23.977 52.5693C24.3288 51.686 24.8512 50.8806 25.5142 50.1992L29.8059 45.7885L28.8016 44.8117L24.51 49.2224C22.9126 50.8651 22.0331 53.075 22.0648 55.3661C22.0965 57.6572 23.0369 59.8419 24.6791 61.4398C26.3213 63.0377 28.531 63.9179 30.8221 63.8868C33.1132 63.8558 35.2982 62.9161 36.8965 61.2743L49.018 48.8164C50.515 47.2778 51.3857 45.2371 51.4607 43.0918C51.5357 40.9464 50.8096 38.8499 49.4238 37.2105Z" fill="black"/>
<path d="M55.8914 19.1634C55.7139 18.9542 55.5251 18.7522 55.3249 18.5573C53.6812 16.9614 51.4716 16.0828 49.1808 16.1141C46.89 16.1454 44.7052 17.0841 43.1057 18.7243L30.9842 31.1822C29.386 32.8247 28.5058 35.0349 28.5372 37.3264C28.5685 39.618 29.509 41.8032 31.1515 43.4014C32.7941 44.9996 35.0042 45.8798 37.2958 45.8484C39.5873 45.8171 41.7725 44.8767 43.3707 43.2341L46.555 39.9614L45.5507 38.9846L42.3665 42.2573C41.7034 42.9387 40.9126 43.4829 40.0393 43.8587C39.1659 44.2345 38.2271 44.4346 37.2764 44.4476C36.3257 44.4606 35.3817 44.2862 34.4984 43.9344C33.6151 43.5826 32.8098 43.0603 32.1283 42.3972C31.4469 41.7341 30.9027 40.9434 30.5269 40.07C30.1511 39.1966 29.951 38.2578 29.938 37.3071C29.925 36.3564 30.0994 35.4124 30.4512 34.5291C30.803 33.6458 31.3254 32.8405 31.9884 32.159L44.1099 19.7012C44.7729 19.0191 45.5637 18.4744 46.4372 18.0981C47.3107 17.7217 48.2498 17.5212 49.2008 17.508C50.1519 17.4947 51.0962 17.669 51.9799 18.0208C52.8635 18.3726 53.6692 18.8951 54.3509 19.5584C55.0326 20.2217 55.5769 21.0128 55.9527 21.8865C56.3285 22.7602 56.5285 23.6994 56.5413 24.6505C56.554 25.6015 56.3792 26.5457 56.0269 27.4292C55.6746 28.3127 55.1517 29.1181 54.488 29.7994L50.3156 34.0875L51.3198 35.0644L55.4922 30.7763C56.9879 29.2352 57.8571 27.193 57.9309 25.0468C58.0046 22.9005 57.2777 20.8035 55.8914 19.1634Z" fill="black"/>
<g clip-path="url(#clip1_658_1125)">
<circle cx="7.5" cy="72.4297" r="2" stroke="black"/>
<circle cx="72.5" cy="72.4297" r="2" stroke="black"/>
</g>
<rect x="1" y="1" width="78" height="78" rx="5.25" stroke="black" stroke-width="2"/>
<defs>
<clipPath id="clip0_658_1125">
<rect width="70" height="5" fill="white" transform="translate(5 5.07031)"/>
</clipPath>
<clipPath id="clip1_658_1125">
<rect width="70" height="5" fill="white" transform="translate(5 69.9297)"/>
</clipPath>
</defs>
</svg>
