<svg width="914" height="570" viewBox="0 0 914 570" fill="none" xmlns="http://www.w3.org/2000/svg">
<g clip-path="url(#clip0_659_1908)">
<path d="M239.115 347.382C335.042 347.382 412.806 269.618 412.806 173.691C412.806 77.7641 335.042 0 239.115 0C143.188 0 65.4243 77.7641 65.4243 173.691C65.4243 269.618 143.188 347.382 239.115 347.382Z" fill="#F2F2F2"/>
<path d="M0.50708 41.7041C0.50708 104.9 40.1527 156.037 89.1472 156.037L0.50708 41.7041Z" fill="#2F2E41"/>
<path d="M89.1472 156.037C89.1472 92.1316 133.39 40.4199 188.064 40.4199L89.1472 156.037Z" fill="#2795DB"/>
<path d="M32.623 47.4326C32.623 107.462 57.9043 156.037 89.1472 156.037L32.623 47.4326Z" fill="#2795DB"/>
<path d="M89.1472 156.037C89.1472 74.3798 140.284 8.30371 203.48 8.30371L89.1472 156.037Z" fill="#2F2E41"/>
<path d="M70.4995 156.843C70.4995 156.843 83.0701 156.456 86.8586 153.758C90.6471 151.061 106.195 147.84 107.135 152.166C108.075 156.493 126.027 173.684 111.834 173.799C97.6422 173.913 78.8581 171.588 75.0769 169.285C71.2957 166.982 70.4995 156.843 70.4995 156.843Z" fill="#A8A8A8"/>
<path opacity="0.2" d="M112.088 172.292C97.8955 172.406 79.1113 170.081 75.3302 167.778C72.4506 166.024 71.3031 159.73 70.9192 156.826C70.6533 156.838 70.4995 156.842 70.4995 156.842C70.4995 156.842 71.2957 166.981 75.0769 169.284C78.8581 171.587 97.6422 173.912 111.834 173.798C115.931 173.765 117.346 172.307 117.268 170.149C116.699 171.453 115.137 172.267 112.088 172.292Z" fill="black"/>
<path d="M162.463 366.904C246.68 366.904 314.952 357.616 314.952 346.159C314.952 334.702 246.68 325.414 162.463 325.414C78.2454 325.414 9.97363 334.702 9.97363 346.159C9.97363 357.616 78.2454 366.904 162.463 366.904Z" fill="#3F3D56"/>
<path opacity="0.1" d="M162.463 363.576C233.17 363.576 290.489 355.778 290.489 346.159C290.489 336.54 233.17 328.742 162.463 328.742C91.7563 328.742 34.4373 336.54 34.4373 346.159C34.4373 355.778 91.7563 363.576 162.463 363.576Z" fill="black"/>
<path d="M682.721 570C810.173 570 913.493 555.944 913.493 538.605C913.493 521.266 810.173 507.21 682.721 507.21C555.268 507.21 451.948 521.266 451.948 538.605C451.948 555.944 555.268 570 682.721 570Z" fill="#3F3D56"/>
<path d="M253.794 545.233C330.355 545.233 392.42 536.789 392.42 526.374C392.42 515.958 330.355 507.515 253.794 507.515C177.232 507.515 115.167 515.958 115.167 526.374C115.167 536.789 177.232 545.233 253.794 545.233Z" fill="#3F3D56"/>
<path d="M377.742 510.473C451.132 529.228 592.205 486.009 607.699 437.082" stroke="#2F2E41" stroke-width="2" stroke-miterlimit="10"/>
<path d="M252.978 211.201C252.978 211.201 358.987 181.845 365.51 276.437C372.034 371.03 278.257 397.939 351.648 416.695" stroke="#2F2E41" stroke-width="2" stroke-miterlimit="10"/>
<path d="M150.559 438.128C150.559 438.128 182.421 429.305 184.382 457.735C186.342 486.165 158.157 494.253 180.215 499.89" stroke="#2F2E41" stroke-width="2" stroke-miterlimit="10"/>
<path d="M635.502 459.294L629.079 500.307C629.079 500.307 597.454 517.108 619.69 517.602C641.926 518.096 746.683 517.602 746.683 517.602C746.683 517.602 766.942 517.602 734.824 499.813L728.4 456.823L635.502 459.294Z" fill="#2F2E41"/>
<path opacity="0.1" d="M615.217 517.157C620.267 512.663 629.078 507.981 629.078 507.981L635.502 466.968L728.4 467.056L734.823 507.487C742.313 511.635 746.953 514.816 749.668 517.255C753.793 516.314 758.301 512.816 734.823 499.813L728.4 456.823L635.502 459.294L629.078 500.307C629.078 500.307 602.504 514.426 615.217 517.157Z" fill="black"/>
<path d="M876.008 173.438H486.906C478.779 173.438 472.191 180.026 472.191 188.153V450.262C472.191 458.389 478.779 464.977 486.906 464.977H876.008C884.135 464.977 890.723 458.389 890.723 450.262V188.153C890.723 180.026 884.135 173.438 876.008 173.438Z" fill="#2F2E41"/>
<path d="M876.64 189.002H486.273V407.41H876.64V189.002Z" fill="#3F3D56"/>
<path d="M681.457 184.555C682.821 184.555 683.927 183.448 683.927 182.084C683.927 180.719 682.821 179.613 681.457 179.613C680.092 179.613 678.986 180.719 678.986 182.084C678.986 183.448 680.092 184.555 681.457 184.555Z" fill="#F2F2F2"/>
<path d="M890.723 424.705V450.262C890.723 452.194 890.343 454.108 889.604 455.893C888.864 457.679 887.78 459.301 886.414 460.668C885.047 462.034 883.425 463.118 881.639 463.857C879.854 464.597 877.94 464.977 876.008 464.977H486.906C484.974 464.977 483.06 464.597 481.274 463.857C479.489 463.118 477.867 462.034 476.5 460.668C475.134 459.301 474.05 457.679 473.31 455.893C472.571 454.108 472.19 452.194 472.191 450.262V424.705H890.723Z" fill="#2F2E41"/>
<path d="M790.661 544.285V549.227H524.816V545.273L525.182 544.285L531.734 526.496H785.225L790.661 544.285Z" fill="#2F2E41"/>
<path d="M892.966 539.448C892.482 541.518 890.654 543.703 886.523 545.768C871.699 553.18 841.557 543.791 841.557 543.791C841.557 543.791 818.332 539.838 818.332 529.461C818.984 529.015 819.664 528.611 820.368 528.251C826.601 524.954 847.265 516.817 883.906 528.595C886.605 529.443 889.017 531.023 890.871 533.16C892.356 534.898 893.52 537.102 892.966 539.448Z" fill="#2F2E41"/>
<path opacity="0.1" d="M892.966 539.448C874.822 546.4 858.649 546.919 842.051 535.391C833.68 529.58 826.075 528.142 820.368 528.251C826.601 524.954 847.265 516.817 883.906 528.595C886.605 529.443 889.017 531.023 890.871 533.16C892.356 534.898 893.52 537.102 892.966 539.448Z" fill="black"/>
<path d="M870.216 535.392C873.764 535.392 876.64 534.507 876.64 533.415C876.64 532.323 873.764 531.438 870.216 531.438C866.669 531.438 863.793 532.323 863.793 533.415C863.793 534.507 866.669 535.392 870.216 535.392Z" fill="#F2F2F2"/>
<path d="M681.457 454.353C686.642 454.353 690.845 450.15 690.845 444.965C690.845 439.78 686.642 435.576 681.457 435.576C676.272 435.576 672.068 439.78 672.068 444.965C672.068 450.15 676.272 454.353 681.457 454.353Z" fill="#F2F2F2"/>
<path opacity="0.1" d="M790.661 544.285V549.227H524.816V545.273L525.182 544.285H790.661Z" fill="black"/>
<path d="M258.686 129.656H89.0725V326.995H258.686V129.656Z" fill="#2F2E41"/>
<path d="M275.811 110.086H71.948V180.215H275.811V110.086Z" fill="#3F3D56"/>
<path d="M275.811 193.262H71.948V263.39H275.811V193.262Z" fill="#3F3D56"/>
<path d="M275.811 276.438H71.948V346.566H275.811V276.438Z" fill="#3F3D56"/>
<path opacity="0.4" d="M235.038 122.317H221.991V135.365H235.038V122.317Z" fill="#2795DB"/>
<path opacity="0.8" d="M253.794 122.317H240.746V135.365H253.794V122.317Z" fill="#2795DB"/>
<path d="M272.549 122.317H259.501V135.365H272.549V122.317Z" fill="#2795DB"/>
<path opacity="0.4" d="M235.038 204.678H221.991V217.725H235.038V204.678Z" fill="#2795DB"/>
<path opacity="0.8" d="M253.794 204.678H240.746V217.725H253.794V204.678Z" fill="#2795DB"/>
<path d="M272.549 204.678H259.501V217.725H272.549V204.678Z" fill="#2795DB"/>
<path opacity="0.4" d="M235.038 287.039H221.991V300.086H235.038V287.039Z" fill="#2795DB"/>
<path opacity="0.8" d="M253.794 287.039H240.746V300.086H253.794V287.039Z" fill="#2795DB"/>
<path d="M272.549 287.039H259.501V300.086H272.549V287.039Z" fill="#2795DB"/>
<path d="M258.686 503.133C294.265 503.133 323.107 474.291 323.107 438.713C323.107 403.134 294.265 374.292 258.686 374.292C223.108 374.292 194.266 403.134 194.266 438.713C194.266 474.291 223.108 503.133 258.686 503.133Z" fill="#2F2E41"/>
<path d="M248.901 489.271H229.33V524.335H248.901V489.271Z" fill="#2F2E41"/>
<path d="M288.042 489.271H268.472V524.335H288.042V489.271Z" fill="#2F2E41"/>
<path d="M245.639 530.859C254.646 530.859 261.948 528.121 261.948 524.743C261.948 521.365 254.646 518.627 245.639 518.627C236.632 518.627 229.33 521.365 229.33 524.743C229.33 528.121 236.632 530.859 245.639 530.859Z" fill="#2F2E41"/>
<path d="M284.781 530.043C293.788 530.043 301.09 527.305 301.09 523.927C301.09 520.55 293.788 517.812 284.781 517.812C275.773 517.812 268.472 520.55 268.472 523.927C268.472 527.305 275.773 530.043 284.781 530.043Z" fill="#2F2E41"/>
<path d="M260.317 444.421C272.477 444.421 282.334 434.564 282.334 422.404C282.334 410.244 272.477 400.387 260.317 400.387C248.157 400.387 238.3 410.244 238.3 422.404C238.3 434.564 248.157 444.421 260.317 444.421Z" fill="white"/>
<path d="M260.317 429.743C264.37 429.743 267.656 426.457 267.656 422.404C267.656 418.35 264.37 415.064 260.317 415.064C256.264 415.064 252.978 418.35 252.978 422.404C252.978 426.457 256.264 429.743 260.317 429.743Z" fill="#3F3D56"/>
<path d="M196.196 378.803C190.994 355.508 207.622 331.969 233.335 326.227C259.048 320.486 284.109 334.716 289.311 358.012C294.512 381.307 277.471 389.899 251.759 395.64C226.046 401.382 201.398 402.099 196.196 378.803Z" fill="#2795DB"/>
<path d="M319.106 425.863C335.461 418.864 346.937 409.027 344.74 403.893C342.542 398.759 327.503 400.272 311.149 407.271C294.795 414.271 283.318 424.107 285.516 429.241C287.713 434.376 302.752 432.863 319.106 425.863Z" fill="#2F2E41"/>
<path d="M198.42 469.083C214.774 462.083 226.25 452.247 224.053 447.113C221.855 441.979 206.816 443.491 190.462 450.491C174.108 457.491 162.631 467.327 164.829 472.461C167.026 477.595 182.065 476.083 198.42 469.083Z" fill="#2F2E41"/>
<path d="M296.197 457.468C296.197 463.773 279.962 476.223 261.948 476.223C243.933 476.223 226.884 464.589 226.884 458.283C226.884 451.978 243.933 453.391 261.948 453.391C279.962 453.391 296.197 451.163 296.197 457.468Z" fill="white"/>
</g>
<defs>
<clipPath id="clip0_659_1908">
<rect width="912.986" height="570" fill="white" transform="translate(0.50708)"/>
</clipPath>
</defs>
</svg>
