<svg width="36" height="25" viewBox="0 0 36 25" fill="none" xmlns="http://www.w3.org/2000/svg">
<path d="M10.9999 5.35714C10.9999 4.36942 11.7979 3.57143 12.7856 3.57143C13.7734 3.57143 14.5714 4.36942 14.5714 5.35714V5.79241C14.5714 7.33817 14.4374 8.87835 14.1752 10.3962L9.46533 11.808C7.19971 12.4888 5.64837 14.5759 5.64837 16.942V20.9542C5.64837 23.1864 7.46198 25 9.69413 25C11.145 25 12.4843 24.2243 13.2042 22.9632L13.9798 21.6071C15.4754 18.9844 16.5747 16.1551 17.2388 13.2087L22.5066 11.6295L21.8091 13.7221C21.6249 14.269 21.7198 14.8661 22.0546 15.3292C22.3894 15.7924 22.9307 16.0714 23.5055 16.0714H30.6428C31.6305 16.0714 32.4285 15.2734 32.4285 14.2857C32.4285 13.298 31.6305 12.5 30.6428 12.5H25.9776L26.9821 9.49219C27.1941 8.86161 27.0323 8.16406 26.5691 7.68415C26.106 7.20424 25.414 7.02567 24.7723 7.2154L17.9419 9.26897C18.0758 8.11384 18.1428 6.95871 18.1428 5.79241V5.35714C18.1428 2.39955 15.7432 0 12.7856 0C9.82806 0 7.4285 2.39955 7.4285 5.35714V7.14286C7.4285 8.13058 8.22649 8.92857 9.21422 8.92857C10.2019 8.92857 10.9999 8.13058 10.9999 7.14286V5.35714ZM10.4865 15.2344L13.2209 14.4141C12.6406 16.3002 11.8537 18.1194 10.8716 19.8382L10.0959 21.1942C10.0122 21.3393 9.85596 21.4342 9.68297 21.4342C9.42069 21.4342 9.20864 21.2221 9.20864 20.9598V16.942C9.20864 16.1551 9.72761 15.4576 10.481 15.2288L10.4865 15.2344ZM1.62493 18.75C0.882743 18.75 0.285645 19.3471 0.285645 20.0893C0.285645 20.8315 0.882743 21.4286 1.62493 21.4286H3.87381C3.86265 21.2723 3.85707 21.1161 3.85707 20.9542V18.75H1.62493ZM34.6606 21.4286C35.4028 21.4286 35.9999 20.8315 35.9999 20.0893C35.9999 19.3471 35.4028 18.75 34.6606 18.75H17.356C16.9821 19.6596 16.5635 20.5525 16.1115 21.4286H34.6606Z" fill="#252525"/>
</svg>
